<?xml version="1.0" encoding="utf-8"?>
<!-- Generator: Adobe Illustrator 21.0.2, SVG Export Plug-In . SVG Version: 6.00 Build 0)  -->
<svg version="1.1" id="Layer_1" xmlns="http://www.w3.org/2000/svg" xmlns:xlink="http://www.w3.org/1999/xlink" x="0px" y="0px"
	 viewBox="0 0 48 48" style="enable-background:new 0 0 48 48;" xml:space="preserve">
<style type="text/css">
	.st0{fill:#ffffff}
	.st1{fill:#333333;fill-opacity:0;}
</style>
<title>trash</title>
<rect class="st1" width="48" height="48"/>
<polygon class="st0" points="27.4,9.3 27.8,7.1 22.7,6 22.2,8.2 13.6,6.4 13.1,9.1 35.4,13.8 36,11.1 "/>
<path class="st0" d="M35.4,15.4H12.6v4.3h1.8V37c0,1.1,0.9,2,2,2h15.2c1.1,0,2-0.9,2-2V19.7h1.8V15.4z M19.7,34.2c0,0.5-0.4,1-1,1
	c-0.5,0-1-0.4-1-1V22.6c0-0.5,0.4-1,1-1c0.5,0,1,0.4,1,1V34.2z M25.3,33.8c0,0.7-0.6,1.3-1.3,1.3c-0.7,0-1.3-0.6-1.3-1.3V23
	c0-0.7,0.6-1.3,1.3-1.3c0.7,0,1.3,0.6,1.3,1.3V33.8z M30.3,34.2c0,0.5-0.4,1-1,1c-0.5,0-1-0.4-1-1V22.6c0-0.5,0.4-1,1-1
	c0.5,0,1,0.4,1,1V34.2z"/>
</svg>
