<?xml version="1.0" encoding="utf-8"?>
<!-- Generator: Adobe Illustrator 21.0.0, SVG Export Plug-In . SVG Version: 6.00 Build 0)  -->
<svg version="1.1" id="Layer_1" xmlns="http://www.w3.org/2000/svg" xmlns:xlink="http://www.w3.org/1999/xlink" x="0px" y="0px"
	 viewBox="0 0 200 200" style="enable-background:new 0 0 200 200;" xml:space="preserve">
<style type="text/css">
	.st0{fill:none;}
	.st1{fill:#FFFFFF;}
	.st2{opacity:0.3;fill:#FFFFFF;}
</style>
<rect class="st0" width="200" height="200"/>
<g>
	<path class="st1" d="M100,1.4C45.5,1.4,1.4,45.5,1.4,100c0,54.5,44.2,98.6,98.6,98.6s98.6-44.2,98.6-98.6
		C198.6,45.5,154.5,1.4,100,1.4z M100,174.4c-41.1,0-74.4-33.3-74.4-74.4c0-41.1,33.3-74.4,74.4-74.4c41.1,0,74.4,33.3,74.4,74.4
		C174.4,141.1,141.1,174.4,100,174.4z"/>
	<path class="st1" d="M94.1,66.4c1,1,2.1,1.9,3.4,2.5c1.3,0.6,2.8,0.9,4.4,0.9c1.5,0,3-0.3,4.3-0.9c1.3-0.6,2.4-1.4,3.3-2.5
		c0.9-1,1.6-2.2,2.1-3.6s0.7-2.8,0.7-4.4c0-1.6-0.3-3.1-0.8-4.5c-0.5-1.4-1.3-2.6-2.2-3.7c-1-1-2.1-1.9-3.4-2.5
		c-1.3-0.6-2.7-0.9-4.2-0.9c-1.5,0-2.8,0.3-4.1,0.9s-2.4,1.4-3.4,2.5c-1,1-1.7,2.3-2.3,3.7c-0.6,1.4-0.9,2.9-0.9,4.5
		c0,1.6,0.3,3.1,0.8,4.4S93.2,65.3,94.1,66.4z"/>
	<path class="st1" d="M109.9,139.7c0.1-1.2,0.1-2.3,0.2-3.4c0-1.1,0.1-2.1,0.1-3.1c0-1,0-1.8,0-2.5V82.1h-7.6
		c-0.5,0.5-1.3,0.9-2.3,1.4c-1.1,0.5-2.5,0.9-4.2,1.4c-1.7,0.4-3.9,0.8-6.3,1c-2.5,0.3-5.3,0.4-8.5,0.4v10.5l9.8-0.4
		c-0.2,2.1-0.4,4.2-0.4,6.4c-0.1,2.2-0.1,4.1-0.1,5.8v23.2c0,1.9-0.1,3.6-0.2,5.1c-0.1,1.5-0.5,2.8-1,3.9c-0.5,1.1-1.4,1.9-2.5,2.5
		c-1.1,0.6-2.6,0.9-4.6,0.9v9.1h36.6v-10.6l-9.1,0.4C109.8,141.9,109.9,140.8,109.9,139.7z"/>
	<circle class="st2" cx="100" cy="103" r="86.2"/>
</g>
</svg>
