<?xml version="1.0" encoding="utf-8"?>
<!-- Generator: Adobe Illustrator 22.1.0, SVG Export Plug-In . SVG Version: 6.00 Build 0)  -->
<svg version="1.1" id="Layer_1" xmlns="http://www.w3.org/2000/svg" xmlns:xlink="http://www.w3.org/1999/xlink" x="0px" y="0px"
	 viewBox="0 0 40 40" style="enable-background:new 0 0 40 40;" xml:space="preserve">
<style type="text/css">
	.st0{fill:none;}
	.st1{fill:#FFFFFF;}
</style>
<rect y="0" class="st0" width="40" height="40"/>
<path class="st1" d="M34.6,19.9L34.6,19.9c-0.1-2.1-0.5-4.1-1.4-5.8l4.3-3.6l-4.2-5.2l-4.5,3.4l0,0c-1.6-1.2-3.4-2.1-5.3-2.5l0,0
	l-0.2-5.6h-6.7l-0.2,5.6c-2,0.5-3.8,1.4-5.4,2.6l0,0L6.6,5.3l-4.2,5.2l4.3,3.6l0,0C5.9,16,5.5,17.9,5.4,20l0,0L0,21.4l1.5,6.5
	L7,26.8l0,0c0.9,1.8,2.2,3.4,3.8,4.7l0,0l-2.3,5.1l6,2.9l2.6-5c1,0.2,1.9,0.3,2.9,0.3c1.1,0,2.1-0.1,3.1-0.3l0,0l2.6,5l6-2.9
	l-2.3-5.1l0,0c1.5-1.3,2.8-2.9,3.7-4.7l0,0l5.5,1.1l1.4-6.5L34.6,19.9z M11.9,20.2c0-4.4,3.6-8.1,8.1-8.1c4.4,0,8.1,3.6,8.1,8.1
	s-3.6,8.1-8.1,8.1C15.5,28.3,11.9,24.7,11.9,20.2z"/>
</svg>
